<?xml version="1.0" encoding="utf-8"?>
<!-- Generator: Adobe Illustrator 16.0.0, SVG Export Plug-In . SVG Version: 6.00 Build 0)  -->
<!DOCTYPE svg PUBLIC "-//W3C//DTD SVG 1.1//EN" "http://www.w3.org/Graphics/SVG/1.1/DTD/svg11.dtd">
<svg version="1.1" id="Layer_1" xmlns="http://www.w3.org/2000/svg" xmlns:xlink="http://www.w3.org/1999/xlink" x="0px" y="0px"
	 width="595.28px" height="841.89px" viewBox="0 0 595.28 841.89" enable-background="new 0 0 595.28 841.89" xml:space="preserve">
<g>
	<g>
		<path fill="#E0932D" d="M171.606,410.556c0,0-2.118-50.398,45.739-50.398c47.856,0,41.785,53.927,33.315,67.479l-8.116,8.753
			c0,0-1.059-13.764-12.494-13.976c-11.435-0.212-20.117,13.976-14.611,29.858c5.506,15.882,34.516,8.047,44.892-8.894
			c10.376-16.941,23.082-75.598-11.646-117.102c-34.728-41.504-101.219-41.928-109.689,5.082S171.606,410.556,171.606,410.556z"/>
		<path fill="#E0932D" d="M171.606,410.556c0,0-2.118-50.398,45.739-50.398c47.856,0,41.785,53.927,33.315,67.479l-8.116,8.753
			c0,0-1.059-13.764-12.494-13.976c-11.435-0.212-20.117,13.976-14.611,29.858c5.506,15.882,34.516,8.047,44.892-8.894
			c10.376-16.941,23.082-75.598-11.646-117.102c-34.728-41.504-101.219-41.928-109.689,5.082S171.606,410.556,171.606,410.556z"/>
		<path fill="#E0932D" d="M408.775,410.556c0,0,2.117-50.398-45.738-50.398c-47.857,0-41.785,53.927-33.316,67.479l8.117,8.753
			c0,0,1.059-13.764,12.494-13.976c11.434-0.212,20.115,13.976,14.611,29.858c-5.506,15.882-34.518,8.047-44.893-8.894
			c-10.377-16.941-23.082-75.598,11.646-117.102c34.727-41.504,101.219-41.928,109.689,5.082S408.775,410.556,408.775,410.556z"/>
		<path fill="#E0932D" d="M330.846,302.984c15.67-23.717,0.848-49.127-2.117-55.904c-2.965-6.776-37.692-73.691-37.692-73.691
			s-34.729,66.915-37.692,73.691c-2.965,6.776-17.788,32.187-2.118,55.904c15.67,23.716,29.364,68.185,29.364,68.185v57.033
			c-17.506,12.705,10.446,61.128,10.446,61.128s27.952-48.423,10.446-61.128v-57.033C301.482,371.169,315.176,326.7,330.846,302.984
			z"/>
		<path fill="#E0932D" d="M236.403,410.344c0,0,10.165-8.258,17.364-8.894c7.2-0.635,75.809,0,75.809,0s8.893,2.541,12.916,8.894
			c0,0,2.965-15.67-14.822-17.999h-74.75C252.92,392.345,235.682,395.752,236.403,410.344z"/>
	</g>
	<g>
		<path fill="#FFFFFF" d="M180.658,528.524h-19.28v13.179h21.488v3.96h-27.891v-36.554h26.787v3.96h-20.385v11.551h19.28V528.524z"
			/>
		<path fill="#FFFFFF" d="M191.179,509.109h6.402v32.594h21.196v3.96h-27.599V509.109z"/>
		<path fill="#FFFFFF" d="M251.597,528.524h-19.28v13.179h21.49v3.96h-27.893v-36.554h26.787v3.96h-20.385v11.551h19.28V528.524z"/>
		<path fill="#FFFFFF" d="M299.873,544.035c-2.872,0.762-8.536,2.006-15.232,2.006c-7.508,0-13.688-1.41-18.546-4.824
			c-4.268-3.038-6.918-7.918-6.918-13.612c0.072-10.902,10.23-18.873,26.859-18.873c5.741,0,10.23,0.92,12.365,1.682l-1.546,3.851
			c-2.65-0.87-5.962-1.574-10.965-1.574c-12.07,0-19.944,5.532-19.944,14.696c0,9.274,7.58,14.751,19.134,14.751
			c4.195,0,7.064-0.434,8.536-0.977v-10.898h-10.081v-3.799h16.337V544.035z"/>
		<path fill="#FFFFFF" d="M317.682,534.166l-5.152,11.497h-6.623l16.854-36.554h7.727l16.926,36.554h-6.846l-5.297-11.497H317.682z
			 M333.947,530.477l-4.857-10.519c-1.105-2.389-1.84-4.556-2.578-6.67h-0.145c-0.738,2.167-1.547,4.391-2.506,6.614l-4.857,10.574
			H333.947z"/>
		<path fill="#FFFFFF" d="M354.699,545.663v-36.554h6.99l15.895,18.495c3.68,4.285,6.553,8.133,8.904,11.875l0.148-0.053
			c-0.588-4.881-0.736-9.327-0.736-15.021v-15.296h6.035v36.554h-6.477l-15.748-18.548c-3.459-4.066-6.77-8.242-9.271-12.203
			l-0.223,0.057c0.367,4.609,0.518,9.003,0.518,15.074v15.62H354.699z"/>
		<path fill="#FFFFFF" d="M412.537,513.122h-15.084v-4.013h36.721v4.013h-15.16v32.541h-6.477V513.122z"/>
	</g>
	<g>
		<path fill="#FFFFFF" d="M154.092,586.499c2.869,1.304,7.064,2.389,11.479,2.389c6.55,0,10.378-2.551,10.378-6.236
			c0-3.418-2.65-5.37-9.347-7.27c-8.097-2.114-13.099-5.204-13.099-10.356c0-5.693,6.402-9.926,16.042-9.926
			c5.077,0,8.758,0.867,10.967,1.79l-1.767,3.852c-1.62-0.652-4.93-1.737-9.419-1.737c-6.771,0-9.347,2.984-9.347,5.479
			c0,3.414,3.018,5.096,9.861,7.051c8.389,2.386,12.658,5.366,12.658,10.736c0,5.642-5.667,10.521-17.368,10.521
			c-4.784,0-10.009-1.032-12.657-2.332L154.092,586.499z"/>
		<path fill="#FFFFFF" d="M216.938,575.11h-19.281v13.179h21.487v3.961h-27.89v-36.555h26.788v3.961h-20.386v11.55h19.281V575.11z"
			/>
		<path fill="#FFFFFF" d="M227.46,556.185c3.239-0.489,7.875-0.757,12.292-0.757c6.843,0,11.26,0.919,14.35,2.98
			c2.502,1.628,3.901,4.123,3.901,6.942c0,4.827-4.123,8.026-9.347,9.326v0.163c3.828,0.976,6.107,3.579,7.285,7.375
			c1.618,5.099,2.796,8.625,3.828,10.035h-6.624c-0.811-1.032-1.912-4.176-3.312-8.731c-1.473-5.043-4.123-6.942-9.936-7.104h-6.035
			v15.836h-6.402V556.185z M233.862,572.834h6.551c6.842,0,11.187-2.766,11.187-6.941c0-4.718-4.639-6.779-11.408-6.832
			c-3.09,0-5.297,0.215-6.33,0.434V572.834z"/>
		<path fill="#FFFFFF" d="M279.122,592.25l-16.192-36.555h6.918l7.729,18.006c2.134,4.937,3.974,9.384,5.297,13.668h0.146
			c1.399-4.231,3.461-8.841,5.668-13.611l8.391-18.063h6.842l-17.734,36.555H279.122z"/>
		<path fill="#FFFFFF" d="M315.695,555.695v36.555h-6.402v-36.555H315.695z"/>
		<path fill="#FFFFFF" d="M361.541,591.056c-2.355,0.866-7.064,1.736-13.1,1.736c-13.982,0-24.508-6.508-24.508-18.495
			c0-11.441,10.525-19.197,25.908-19.197c6.18,0,10.082,0.977,11.771,1.628l-1.545,3.852c-2.428-0.87-5.887-1.519-10.008-1.519
			c-11.627,0-19.354,5.476-19.354,15.074c0,8.95,6.992,14.697,19.059,14.697c3.9,0,7.875-0.596,10.451-1.519L361.541,591.056z"/>
		<path fill="#FFFFFF" d="M395.246,575.11h-19.283v13.179h21.49v3.961h-27.893v-36.555h26.787v3.961h-20.385v11.55h19.283V575.11z"
			/>
		<path fill="#FFFFFF" d="M404.885,586.499c2.869,1.304,7.064,2.389,11.48,2.389c6.549,0,10.377-2.551,10.377-6.236
			c0-3.418-2.65-5.37-9.348-7.27c-8.096-2.114-13.098-5.204-13.098-10.356c0-5.693,6.4-9.926,16.043-9.926
			c5.076,0,8.754,0.867,10.965,1.79l-1.768,3.852c-1.617-0.652-4.93-1.737-9.42-1.737c-6.77,0-9.346,2.984-9.346,5.479
			c0,3.414,3.018,5.096,9.863,7.051c8.387,2.386,12.654,5.366,12.654,10.736c0,5.642-5.664,10.521-17.367,10.521
			c-4.783,0-10.008-1.032-12.658-2.332L404.885,586.499z"/>
	</g>
</g>
</svg>
